<?xml version="1.0" encoding="UTF-8" standalone="no"?>
<svg
   xmlns:dc="http://purl.org/dc/elements/1.1/"
   xmlns:cc="http://creativecommons.org/ns#"
   xmlns:rdf="http://www.w3.org/1999/02/22-rdf-syntax-ns#"
   xmlns:svg="http://www.w3.org/2000/svg"
   xmlns="http://www.w3.org/2000/svg"
   id="svg8"
   version="1.1"
   viewBox="0 0 4.2333332 4.2333335"
   height="16"
   width="16">
  <defs
     id="defs2" />
  <metadata
     id="metadata5">
    <rdf:RDF>
      <cc:Work
         rdf:about="">
        <dc:format>image/svg+xml</dc:format>
        <dc:type
           rdf:resource="http://purl.org/dc/dcmitype/StillImage" />
        <dc:title></dc:title>
      </cc:Work>
    </rdf:RDF>
  </metadata>
  <g
     transform="translate(0,-292.76665)"
     id="layer1">
    <path
       transform="matrix(0.26458333,0,0,0.26458333,0,292.76665)"
       id="rect3713"
       d="M 4.5 0 C 3.669 0 3 0.66900004 3 1.5 L 3 3 L 1.5 3 C 0.66901106 3 0 3.6690111 0 4.5 C -1.4802974e-16 5.3309889 0.66901106 6 1.5 6 L 3 6 L 3 10 L 1.5 10 C 0.66901107 10 -1.4802974e-16 10.669011 0 11.5 C -1.4802974e-16 12.330989 0.66901107 13 1.5 13 L 3 13 L 3 14.5 C 3 15.331 3.669 16 4.5 16 C 4.6768642 16 4.8430256 15.96437 5 15.908203 L 5 16 L 5.0390625 15.896484 L 6 13.333984 L 7.2636719 9.9648438 A 2.0669643 2.0669643 0 0 1 5.9785156 8.5097656 A 2.0669643 2.0669643 0 0 1 5.9628906 8.4414062 A 2.0669643 2.0669643 0 0 1 5.9394531 8.2988281 A 2.0669643 2.0669643 0 0 1 5.9316406 8.2460938 A 2.0669643 2.0669643 0 0 1 5.921875 8.0859375 A 2.0669643 2.0669643 0 0 1 5.9199219 8.03125 A 2.0669643 2.0669643 0 0 1 6 7.4667969 A 2.0669643 2.0669643 0 0 1 7.609375 6 L 8.359375 6 A 2.0669643 2.0669643 0 0 1 10 7.5742188 A 2.0669643 2.0669643 0 0 1 10.001953 7.5820312 A 2.0669643 2.0669643 0 0 1 10.029297 7.7382812 A 2.0669643 2.0669643 0 0 1 10.042969 7.8476562 A 2.0669643 2.0669643 0 0 1 10.048828 7.9296875 A 2.0669643 2.0669643 0 0 1 10.052734 8.03125 A 2.0669643 2.0669643 0 0 1 10 8.4863281 A 2.0669643 2.0669643 0 0 1 10 8.4882812 A 2.0669643 2.0669643 0 0 1 8.734375 9.9570312 L 10 13.333984 L 10.960938 15.896484 L 11 16 L 11 15.908203 C 11.156974 15.96437 11.323136 16 11.5 16 C 12.331 16 13 15.331 13 14.5 L 13 13 L 14.5 13 C 15.330989 13 16 12.330989 16 11.5 C 16 10.669011 15.330989 10 14.5 10 L 13 10 L 13 6 L 14.5 6 C 15.330989 6 16 5.3309889 16 4.5 C 16 3.6690111 15.330989 3 14.5 3 L 13 3 L 13 1.5 C 13 0.66899998 12.331 -1.4802974e-16 11.5 0 C 10.669 0 10 0.66899998 10 1.5 L 10 3 L 6 3 L 6 1.5 C 6 0.66900004 5.331 -1.4802974e-16 4.5 0 z "
       style="fill:#000000;fill-opacity:1;stroke:none;stroke-width:0.12247449;stroke-miterlimit:4;stroke-dasharray:none;stroke-opacity:1" />
  </g>
</svg>
