<svg xmlns="http://www.w3.org/2000/svg" width="16" height="16" viewBox="0 0 4.233 4.233"><path d="M1.19 0a.396.396 0 0 0-.396.397v.397H.397a.396.396 0 1 0 0 .793h.397v1.059H.397a.396.396 0 1 0 0 .794h.397v.396a.396.396 0 0 0 .529.373v.024l.01-.027.254-.678.335-.891a.547.547 0 0 1-.34-.385.547.547 0 0 1-.004-.019.547.547 0 0 1-.007-.037.547.547 0 0 1-.002-.014.547.547 0 0 1-.002-.043.547.547 0 0 1 0-.014.547.547 0 0 1 .02-.15.547.547 0 0 1 .426-.388h.199a.547.547 0 0 1 .434.417.547.547 0 0 1 0 .002.547.547 0 0 1 .008.041.547.547 0 0 1 .003.03.547.547 0 0 1 .002.021.547.547 0 0 1 0 .027.547.547 0 0 1-.013.12.547.547 0 0 1-.335.39l.335.893.254.678.01.027V4.21a.396.396 0 0 0 .53-.373V3.44h.396a.396.396 0 1 0 0-.794H3.44V1.587h.396a.396.396 0 1 0 0-.793H3.44V.397a.396.396 0 1 0-.794 0v.397H1.587V.397A.396.396 0 0 0 1.191 0z" stroke-width=".206" stroke="#fff" stroke-opacity=".826" fill-opacity=".811"/></svg>